<?xml version="1.0" encoding="UTF-8"?>
<svg id="Ebene_1" data-name="Ebene 1" xmlns="http://www.w3.org/2000/svg" viewBox="0 0 70.82 70.82">
  <defs>
    <style>
      .cls-1 {
        fill: #fff;
      }

      .cls-2 {
        fill: #385171;
      }
    </style>
  </defs>
  <circle class="cls-2" cx="35.41" cy="35.41" r="35.41"/>
  <g>
    <path class="cls-1" d="M42.65,39.13l6.62-12.98c.19-.38,.73-.38,.92,0l6.62,12.98v.03h.55c-.67,3.61-3.83,6.35-7.63,6.35s-6.96-2.74-7.63-6.35h.55s0-.02,0-.03Zm11.53,.03l-3.99-8.12c-.19-.38-.74-.38-.92,0l-3.99,8.12h8.9Z"/>
    <path class="cls-1" d="M14.44,46.03v-.03l6.62-12.98c.19-.38,.73-.38,.92,0l6.62,12.98v.03h.55c-.67,3.61-3.83,6.35-7.63,6.35s-6.96-2.74-7.63-6.35h.55Zm11.54,0l-3.99-8.12c-.19-.38-.74-.38-.92,0l-3.99,8.12h8.9Z"/>
    <rect class="cls-1" x="18.13" y="24.08" width="33.15" height="3.56" rx=".92" ry=".92" transform="translate(-5.07 8.79) rotate(-13.46)"/>
  </g>
</svg>